{
    "streams": [
        {
            "index": 0,
            "codec_name": "prores",
            "codec_long_name": "ProRes",
            "codec_type": "video",
            "codec_time_base": "1/2500",
            "codec_tag_string": "apcs",
            "codec_tag": "0x73637061",
            "width": 1920,
            "height": 1080,
            "coded_width": 1920,
            "coded_height": 1080,
            "has_b_frames": 0,
            "sample_aspect_ratio": "1:1",
            "display_aspect_ratio": "16:9",
            "pix_fmt": "yuv422p10le",
            "level": -99,
            "color_space": "bt709",
            "color_transfer": "bt709",
            "color_primaries": "bt709",
            "refs": 1,
            "r_frame_rate": "25/1",
            "avg_frame_rate": "25/1",
            "time_base": "1/2500",
            "start_pts": 0,
            "start_time": "0.000000",
            "duration_ts": 28600,
            "duration": "11.440000",
            "bit_rate": "82716934",
            "bits_per_raw_sample": "10",
            "nb_frames": "286",
            "disposition": {
                "default": 1,
                "dub": 0,
                "original": 0,
                "comment": 0,
                "lyrics": 0,
                "karaoke": 0,
                "forced": 0,
                "hearing_impaired": 0,
                "visual_impaired": 0,
                "clean_effects": 0,
                "attached_pic": 0
            },
            "tags": {
                "creation_time": "2015-11-02 20:25:15",
                "language": "eng",
                "handler_name": "Apple Alias Data Handler",
                "encoder": "Apple ProRes 422 LT",
                "timecode": "00:00:00:00"
            }
        },
        {
            "index": 1,
            "codec_name": "pcm_s16le",
            "codec_long_name": "PCM signed 16-bit little-endian",
            "codec_type": "audio",
            "codec_time_base": "1/48000",
            "codec_tag_string": "sowt",
            "codec_tag": "0x74776f73",
            "sample_fmt": "s16",
            "sample_rate": "48000",
            "channels": 2,
            "channel_layout": "stereo",
            "bits_per_sample": 16,
            "r_frame_rate": "0/0",
            "avg_frame_rate": "0/0",
            "time_base": "1/48000",
            "start_pts": 0,
            "start_time": "0.000000",
            "duration_ts": 549888,
            "duration": "11.456000",
            "bit_rate": "1536000",
            "nb_frames": "549888",
            "disposition": {
                "default": 1,
                "dub": 0,
                "original": 0,
                "comment": 0,
                "lyrics": 0,
                "karaoke": 0,
                "forced": 0,
                "hearing_impaired": 0,
                "visual_impaired": 0,
                "clean_effects": 0,
                "attached_pic": 0
            },
            "tags": {
                "creation_time": "2015-11-02 20:25:15",
                "language": "eng",
                "handler_name": "Apple Alias Data Handler"
            }
        },
        {
            "index": 2,
            "codec_type": "data",
            "codec_time_base": "1/25",
            "codec_tag_string": "tmcd",
            "codec_tag": "0x64636d74",
            "r_frame_rate": "0/0",
            "avg_frame_rate": "0/0",
            "time_base": "1/2500",
            "start_pts": 0,
            "start_time": "0.000000",
            "duration_ts": 28600,
            "duration": "11.440000",
            "bit_rate": "2",
            "nb_frames": "1",
            "disposition": {
                "default": 0,
                "dub": 0,
                "original": 0,
                "comment": 0,
                "lyrics": 0,
                "karaoke": 0,
                "forced": 0,
                "hearing_impaired": 0,
                "visual_impaired": 0,
                "clean_effects": 0,
                "attached_pic": 0
            },
            "tags": {
                "creation_time": "2015-11-02 20:25:15",
                "language": "eng",
                "handler_name": "Apple Alias Data Handler",
                "reel_name": "NO NAME",
                "timecode": "00:00:00:00"
            }
        }
    ],
    "format": {
        "filename": "Clip16.mov",
        "nb_streams": 3,
        "nb_programs": 0,
        "format_name": "mov,mp4,m4a,3gp,3g2,mj2",
        "format_long_name": "QuickTime / MOV",
        "start_time": "0.000000",
        "duration": "11.440000",
        "size": "120569410",
        "bit_rate": "84314272",
        "probe_score": 100,
        "tags": {
            "major_brand": "qt  ",
            "minor_version": "537199360",
            "compatible_brands": "qt  ",
            "creation_time": "2015-11-02 20:25:15"
        }
    }
}
